PathFileType	4	(X/Y/Z)	c:/Users/goper/Files/vsCode/490R/osim_files/A02/A02_Fast_03.trc
DataRate	CameraRate	NumFrames	NumMarkers	Units                	OrigDataRate	OrigDataStartFrame	OrigNumFrames
250.00	250.00	6	36	mm	250.0	1274	2546
                Frame#	Time	Mobility_markerset:LPSIS			Mobility_markerset:LASIS			Mobility_markerset:LTH1			Mobility_markerset:LTH2			Mobility_markerset:LTH3			Mobility_markerset:LTH4			Mobility_markerset:LLFE			Mobility_markerset:LMFE			Mobility_markerset:LSH1			Mobility_markerset:LSH2			Mobility_markerset:LSH3			Mobility_markerset:LSH4			Mobility_markerset:LLMAL			Mobility_markerset:LMMAL			Mobility_markerset:LCAL			Mobility_markerset:LMTP5			Mobility_markerset:LTOE			Mobility_markerset:LMTP1			Mobility_markerset:RPSIS			Mobility_markerset:RASIS			Mobility_markerset:RTH1			Mobility_markerset:RTH2			Mobility_markerset:RTH3			Mobility_markerset:RTH4			Mobility_markerset:RLFE			Mobility_markerset:RMFE			Mobility_markerset:RSH1			Mobility_markerset:RSH2			Mobility_markerset:RSH3			Mobility_markerset:RSH4			Mobility_markerset:RLMAL			Mobility_markerset:RMMAL			Mobility_markerset:RCAL			Mobility_markerset:RMTP1			Mobility_markerset:RTOE			Mobility_markerset:RMTP5		
		X1	Y1	Z1	X2	Y2	Z2	X3	Y3	Z3	X4	Y4	Z4	X5	Y5	Z5	X6	Y6	Z6	X7	Y7	Z7	X8	Y8	Z8	X9	Y9	Z9	X10	Y10	Z10	X11	Y11	Z11	X12	Y12	Z12	X13	Y13	Z13	X14	Y14	Z14	X15	Y15	Z15	X16	Y16	Z16	X17	Y17	Z17	X18	Y18	Z18	X19	Y19	Z19	X20	Y20	Z20	X21	Y21	Z21	X22	Y22	Z22	X23	Y23	Z23	X24	Y24	Z24	X25	Y25	Z25	X26	Y26	Z26	X27	Y27	Z27	X28	Y28	Z28	X29	Y29	Z29	X30	Y30	Z30	X31	Y31	Z31	X32	Y32	Z32	X33	Y33	Z33	X34	Y34	Z34	X35	Y35	Z35	X36	Y36	Z36

1274	5.09200	-269.89420	980.76483	287.40775	-408.51373	946.88971	379.28244	-320.22974	690.10577	384.94504	-333.48392	644.65717	381.17111	-375.45050	698.22803	411.59305	-380.00436	653.66614	402.61615	0.00000	0.00000	0.00000	0.00000	0.00000	0.00000	-314.57498	412.19336	343.02991	-304.34531	368.85294	347.67477	-371.45267	396.08215	358.95413	-354.50684	354.84515	361.82077	-293.84433	116.37759	312.35400	-313.91983	120.06586	231.69084	-227.34056	107.94665	262.06079	-370.88608	43.21349	339.12143	-429.58502	53.99497	278.72684	-392.85385	35.07106	228.55156	-281.42960	999.48779	187.70212	-443.03033	980.98138	137.74228	-448.31873	656.10651	93.84518	-460.77151	612.64148	93.96880	0.00000	0.00000	0.00000	-511.52313	622.90643	98.18797	-492.23279	505.01935	82.13312	-498.87320	502.96045	216.21228	-471.54016	319.99161	95.88798	-473.49814	273.24835	105.57227	-531.43256	318.45459	98.53748	-525.84802	271.76312	103.74026	-467.36749	110.96497	99.85777	-471.28220	112.45462	183.82021	-411.31549	90.53558	137.99794	-595.98169	76.10719	187.96091	-619.83881	89.05008	155.39725	-595.29388	76.69228	95.98907
1275	5.09600	-274.79495	980.90118	287.19272	-413.13779	946.87201	379.58670	-323.66092	690.42346	385.14197	-336.54285	644.69397	381.18622	-378.95410	698.15436	411.85446	-383.21671	653.56097	402.86270	-394.45105	480.36713	359.50784	0.00000	0.00000	0.00000	-316.23334	412.55841	342.99634	-305.78812	369.21713	347.69019	-373.04556	396.05786	359.06409	-355.95334	354.95007	361.90213	-294.06415	117.00723	312.26608	-314.25381	120.31826	231.61082	-227.61671	108.35109	261.94958	-370.99344	43.27216	339.10858	-429.66107	53.89093	278.72104	-392.91449	35.08200	228.54265	-286.55142	999.44043	187.56493	-448.17670	980.50226	137.84335	-454.58246	655.04974	94.45573	-467.51178	611.76483	94.57240	-515.54022	665.59009	100.80446	-518.09338	622.47626	98.65870	-500.05148	504.36374	82.68457	-507.00269	502.53452	216.70187	-483.38211	318.90637	96.62377	-485.97845	272.22098	106.30888	-543.09558	318.58362	99.27005	-538.81805	271.92212	104.38470	-484.01413	109.84344	100.63387	-488.06442	111.51936	184.61295	-428.65704	88.20191	138.89288	-613.28320	77.84551	188.19341	-637.14606	91.41595	155.78885	-612.65344	78.54465	96.35812
1276	5.10000	-279.73859	980.98541	287.01462	-417.87872	946.79077	379.78378	-327.17191	690.58868	385.31995	-339.84601	644.81989	381.39468	-382.46225	698.10156	412.10925	-386.49988	653.40564	403.09537	0.00000	0.00000	0.00000	0.00000	0.00000	0.00000	-317.98465	412.82867	342.93179	-307.40854	369.47324	347.66974	-374.85593	395.87122	359.03403	-357.39838	354.91086	361.88443	-294.32657	117.65931	311.99246	-314.63046	120.51936	231.49922	-227.84001	108.74306	261.79156	-370.98944	43.34522	339.12225	-429.78278	53.85980	278.70456	-392.94821	35.09454	228.51953	-291.66116	999.28558	187.39452	-453.22476	979.90057	137.95612	-460.93338	653.95435	95.16693	-474.21664	610.79956	95.20991	0.00000	0.00000	0.00000	-524.80804	621.94800	99.16513	-508.27209	503.71829	83.01374	-515.30902	502.06079	217.28961	-495.28574	317.92542	97.32755	-499.28574	271.37891	107.07711	-555.36078	319.14572	99.74625	-551.80408	272.13940	104.99818	-500.75577	108.92410	101.32991	-504.69507	110.68680	185.47249	-445.80826	86.08492	139.96504	-631.10028	79.82499	189.26012	-654.12244	93.84859	156.19569	-629.79950	80.33875	96.90804
1277	5.10400	-284.68719	981.01007	286.82034	-422.68649	946.63513	379.91574	-330.67746	690.69489	385.57425	-343.05853	644.90967	381.58316	-385.81723	697.91693	412.44339	-389.68613	653.22083	403.36761	-398.67261	479.80905	359.74109	0.00000	0.00000	0.00000	-319.81250	412.97452	342.98553	-308.92154	369.66559	347.66800	-376.44312	395.69989	359.15781	-358.79544	354.83215	361.95764	-294.57025	117.98900	311.78931	-314.85385	120.70169	231.32433	-228.01851	109.02690	261.59128	-371.04639	43.38959	339.07553	-429.83966	53.80758	278.70853	-392.94659	35.16739	228.48627	-296.80820	999.02362	187.21791	-458.24692	979.19739	138.04405	-467.33807	652.76593	95.78735	-480.94241	609.82684	95.85146	0.00000	0.00000	0.00000	-531.47754	621.37329	99.59161	-515.76428	503.02231	83.85268	-523.54694	501.52365	217.81546	-507.74448	317.01071	97.62112	-512.13477	270.50534	107.82451	-567.21930	319.47632	100.26650	-564.70654	272.41882	105.59444	-516.99457	108.18614	102.23498	-521.51343	109.73244	185.94727	-463.10123	84.13779	140.83553	-648.38751	81.93107	189.71225	-671.11737	96.46444	156.53438	-646.88959	82.35557	97.36356
1278	5.10800	-289.60587	980.97510	286.61591	-427.27396	946.24329	380.29492	-334.13162	690.72955	385.83173	-346.20309	644.89417	381.82935	-389.31146	697.69916	412.76111	-392.89737	652.99756	403.63187	-400.75116	479.57407	360.00040	0.00000	0.00000	0.00000	-321.48947	413.06619	342.97052	-310.40689	369.78986	347.65881	-377.94339	395.57535	359.27594	-360.23541	354.67230	361.93372	-294.73911	118.04900	311.71646	-315.07846	120.78475	231.17722	-228.18680	109.26975	261.37732	-371.02457	43.50405	339.09402	-429.89450	53.80710	278.68607	-392.95908	35.13928	228.44781	-301.91278	998.66089	187.08162	-463.38489	978.41040	138.08011	-473.79825	651.47986	96.46978	-487.75421	608.70532	96.55448	0.00000	0.00000	0.00000	-538.53235	620.69757	99.43225	-523.70001	502.21448	84.51329	-531.76245	500.93164	218.40540	-519.42975	316.07047	98.63750	-525.61890	269.92026	108.19557	-579.12628	319.92038	100.84657	-577.42981	272.63898	106.33912	-533.39178	107.53397	103.08051	-538.11182	109.19447	186.69865	-479.63809	82.57140	141.79427	-665.45776	84.11366	189.91344	-687.80463	99.12405	156.93950	-663.76611	84.50603	97.80642
1279	5.11200	-294.48956	980.82300	286.47287	-432.04678	945.85809	380.43588	-337.53571	690.70953	386.02573	-349.44159	644.80219	382.05853	-392.95776	697.30084	412.97711	-396.25696	652.60724	403.90692	0.00000	0.00000	0.00000	0.00000	0.00000	0.00000	-323.12723	413.10046	342.89771	-311.91754	369.83572	347.55173	-379.63458	395.20078	359.27319	-361.59921	354.42648	361.97195	-294.85162	118.12437	311.60080	-315.23669	120.81273	231.02226	-228.19611	109.45389	261.17233	-371.00543	43.60144	339.04102	-429.97443	53.84304	278.70993	-393.05890	35.08765	228.45331	-307.04681	998.23517	186.92415	-468.43530	977.51111	138.11945	-480.19250	650.15448	97.21061	-494.59671	607.55048	97.21928	0.00000	0.00000	0.00000	-545.02997	619.98615	100.44685	-531.55219	501.37726	85.22797	-540.19287	500.33347	218.92029	-531.23737	315.16718	99.50639	-538.27722	269.13309	109.09046	-590.91803	320.19562	101.31376	-590.19104	272.91876	106.97348	-549.70825	106.96595	103.88409	-554.61639	108.78622	187.44853	-496.90652	80.79601	142.61723	-682.58185	86.55390	190.52534	-705.07129	102.15614	157.66167	-680.38318	86.98633	97.58954
